<svg width="1918" height="180" viewBox="0 0 1918 180" fill="none" xmlns="http://www.w3.org/2000/svg">
<path d="M471.336 96.7939C471.577 97.1289 474.304 101.042 474.545 101.377C490.711 124.129 505.273 143.639 505.273 143.639C536 183.516 567.985 177.969 592.187 166.927C593.858 166.164 596.707 164.649 599.648 163.001C600.009 162.8 605.719 159.357 606.08 159.156" stroke="white" stroke-width="2" stroke-miterlimit="10"/>
<path d="M599.595 154.305C599.194 154.385 592.749 155.859 592.334 155.939C588.082 156.676 583.442 157.119 579.926 156.542C569.977 155.296 563.278 150.593 560.176 147.913C554.841 142.955 549.88 136.925 545.227 130.132C543.101 127.023 520.035 93.4706 503.2 68.735C502.852 68.2258 499.75 63.9648 499.416 63.4556" stroke="white" stroke-width="2" stroke-miterlimit="10"/>
<path d="M218.549 103.185C212.96 109.537 179.277 148.315 179.277 148.315C142.145 188.541 108.034 179.442 82.8823 165.145C78.1354 162.452 73.6961 159.423 69.6445 156.315C75.4076 153.487 76.8651 152.67 78.3761 151.759C84.5136 153.916 90.9319 155.283 97.163 155.069C108.061 154.68 115.763 150.231 119.386 147.618C125.644 142.754 131.608 136.698 137.291 129.797C137.946 129.006 168.887 91.8628 168.887 91.8628C176.523 82.6573 184.452 73.0632 191.311 64.6616C196.205 71.5758 207.09 86.9987 218.549 103.185Z" stroke="white" stroke-width="2" stroke-miterlimit="10"/>
<path d="M134.135 91.876L159.153 62.4237C163.392 57.5864 169.435 55.6971 175.225 56.3135C181.042 56.2197 186.899 58.6316 190.696 63.8306L247.19 143.719C279.121 186.852 328.756 172.582 340.363 169.661C324.37 165.56 310.785 153.179 298.978 136.51C287.171 119.841 230.222 38.7198 230.222 38.7198C217.88 20.1882 198.144 10.4735 178.073 9.64273V9.58913C177.819 9.57573 177.565 9.58913 177.298 9.58913C177.044 9.58913 176.79 9.53553 176.522 9.53553V9.58913C156.438 8.63776 135.94 16.5569 121.994 33.9228C121.994 33.9228 58.078 109.657 44.8537 125.214C31.616 140.771 17.001 151.893 0.701172 154.559C12.0134 158.512 60.1907 177.124 95.7989 137.006L125.992 101.47L134.121 91.9027L134.135 91.876Z" stroke="white" stroke-width="2" stroke-miterlimit="10"/>
<path d="M709.334 116.786C729.659 91.916 764.679 48.8096 767.5 45.3927C780.283 29.876 794.457 18.7409 810.329 15.9672C799.284 12.1483 752.203 -5.87411 717.772 34.1638C717.772 34.1638 701.913 54.2364 681.789 78.4896" stroke="white" stroke-width="2" stroke-miterlimit="10"/>
<path d="M781.714 141.709L843.945 68.4668C848.104 63.7233 854.054 61.8608 859.737 62.4638C865.46 62.37 871.209 64.7417 874.94 69.8469L930.432 148.328C961.788 190.698 1010.55 176.682 1021.96 173.814C1006.25 169.781 992.903 157.628 981.31 141.253C969.717 124.879 913.771 45.1917 913.771 45.1917C901.643 26.9951 882.268 17.4546 862.531 16.6238V16.5702C862.277 16.5568 862.023 16.5702 861.769 16.5702C861.515 16.5702 861.261 16.5166 861.007 16.5166V16.5702C841.284 15.6456 821.133 23.4174 807.441 40.4751C807.441 40.4751 744.662 114.883 731.665 130.158C718.668 145.447 704.294 157.159 688.288 159.772C695.509 166.364 744.916 190.51 781.714 141.736V141.709Z" stroke="white" stroke-width="2" stroke-miterlimit="10"/>
<path d="M688.301 159.745C704.307 157.132 718.775 145.407 731.772 130.132C744.769 114.856 740.771 118.997 740.771 118.997C727.573 130.038 712.972 121.181 709.241 116.089L654.284 39.1487C622.928 -3.22079 574.163 10.7952 562.757 13.6627C578.468 17.696 591.813 29.8494 603.406 46.2237C614.999 62.5979 681.469 155.028 688.301 159.758V159.745Z" stroke="white" stroke-width="2" stroke-miterlimit="10"/>
<path d="M366.677 109.845C387.002 84.9751 422.021 41.8687 424.843 38.4518C437.626 22.935 451.8 11.8 467.672 9.02628C456.627 5.2074 409.546 -12.815 375.114 27.2229C375.114 27.2229 359.256 47.2955 339.132 71.5487" stroke="white" stroke-width="2" stroke-miterlimit="10"/>
<path d="M439.071 134.754L501.302 61.5122C505.46 56.7687 511.41 54.9062 517.093 55.5092C522.816 55.4154 528.566 57.7871 532.297 62.8924L587.788 141.374C619.144 183.743 667.91 169.727 679.316 166.86C663.604 162.826 650.259 150.673 638.666 134.299C627.073 117.924 571.127 38.2371 571.127 38.2371C558.999 20.0405 539.624 10.5 519.888 9.66923V9.61563C519.634 9.60223 519.38 9.61563 519.126 9.61563C518.872 9.61563 518.618 9.56203 518.364 9.56203V9.61563C498.641 8.69106 478.49 16.4628 464.797 33.5205C464.797 33.5205 402.019 107.928 389.022 123.204C376.024 138.493 361.65 150.204 345.645 152.817C352.865 159.41 402.273 183.556 439.071 134.781V134.754Z" stroke="white" stroke-width="2" stroke-miterlimit="10"/>
<path d="M345.644 152.804C361.65 150.191 376.118 138.466 389.115 123.191C402.112 107.915 398.114 112.056 398.114 112.056C384.916 123.097 370.314 114.24 366.584 109.148L311.627 32.2078C280.271 -10.1617 231.505 3.85426 220.1 6.72177C235.811 10.755 249.156 22.9085 260.749 39.2827C272.342 55.657 335.442 145.635 345.644 152.817V152.804Z" stroke="white" stroke-width="2" stroke-miterlimit="10"/>
<path d="M816.841 100.371C833.288 123.552 848.29 143.638 848.29 143.638C879.018 183.515 911.003 177.968 935.205 166.927C937.077 166.069 940.446 164.26 943.749 162.398" stroke="white" stroke-width="2" stroke-miterlimit="10"/>
<path d="M936.582 155.711C932.022 156.582 926.807 157.172 922.943 156.542C912.995 155.296 906.296 150.593 903.194 147.913C897.858 142.955 892.898 136.925 888.244 130.132C886.065 126.956 862.09 92.0635 845.175 67.1938" stroke="white" stroke-width="2" stroke-miterlimit="10"/>
<path d="M1442.66 83.2063C1442.42 82.8713 1439.7 78.9586 1439.45 78.6236C1423.29 55.8711 1408.73 36.3613 1408.73 36.3613C1378 -3.5158 1346.02 2.03162 1321.81 13.0729C1320.14 13.8367 1317.29 15.3508 1314.35 16.999C1313.99 17.1999 1308.28 20.6436 1307.92 20.8446" stroke="white" stroke-width="2" stroke-miterlimit="10"/>
<path d="M1314.41 25.6951C1314.81 25.6147 1321.25 24.1407 1321.67 24.0603C1325.92 23.3234 1330.56 22.8812 1334.07 23.4574C1344.02 24.7035 1350.72 29.4068 1353.82 32.0867C1359.16 37.0445 1364.12 43.0743 1368.77 49.8679C1370.9 52.9766 1393.97 86.5292 1410.8 111.265C1411.15 111.774 1414.25 116.035 1414.58 116.544" stroke="white" stroke-width="2" stroke-miterlimit="10"/>
<path d="M1695.45 76.8149C1701.04 70.4635 1734.72 31.6851 1734.72 31.6851C1771.85 -8.54044 1805.97 0.557875 1831.12 14.8552C1835.86 17.5485 1840.3 20.5768 1844.35 23.6855C1838.59 26.5129 1837.13 27.3302 1835.62 28.2414C1829.49 26.0841 1823.07 24.7173 1816.84 24.9317C1805.94 25.3203 1798.24 29.769 1794.61 32.3819C1788.36 37.2459 1782.39 43.3025 1776.71 50.2033C1776.05 50.9939 1745.11 88.1375 1745.11 88.1375C1737.48 97.343 1729.55 106.937 1722.69 115.339C1717.79 108.424 1706.91 93.0016 1695.45 76.8149Z" stroke="white" stroke-width="2" stroke-miterlimit="10"/>
<path d="M1779.86 88.1374L1754.85 117.59C1750.61 122.427 1744.56 124.316 1738.77 123.7C1732.96 123.794 1727.1 121.382 1723.3 116.183L1666.81 36.2944C1634.88 -6.83885 1585.24 7.4317 1573.64 10.3528C1589.63 14.4531 1603.21 26.8343 1615.02 43.5034C1626.83 60.1724 1683.78 141.294 1683.78 141.294C1696.12 159.825 1715.86 169.54 1735.93 170.371V170.424C1736.18 170.438 1736.43 170.424 1736.7 170.424C1736.96 170.424 1737.21 170.478 1737.48 170.478V170.424C1757.56 171.376 1778.06 163.456 1792.01 146.091C1792.01 146.091 1855.92 70.3561 1869.15 54.7992C1882.38 39.2423 1897 28.1207 1913.3 25.4541C1901.99 21.5013 1853.81 2.88925 1818.2 43.0076L1788.01 78.5433L1779.88 88.1106L1779.86 88.1374Z" stroke="white" stroke-width="2" stroke-miterlimit="10"/>
<path d="M1204.67 63.2144C1184.34 88.084 1149.32 131.19 1146.5 134.607C1133.72 150.124 1119.54 161.259 1103.67 164.033C1114.72 167.852 1161.8 185.874 1196.23 145.836C1196.23 145.836 1212.09 125.764 1232.21 101.51" stroke="white" stroke-width="2" stroke-miterlimit="10"/>
<path d="M1132.29 38.291L1070.06 111.533C1065.9 116.277 1059.95 118.139 1054.26 117.536C1048.54 117.63 1042.79 115.258 1039.06 110.153L983.569 31.6716C952.213 -10.6978 903.447 3.31812 892.041 6.18563C907.752 10.2189 921.097 22.3723 932.69 38.7466C944.283 55.1209 1000.23 134.808 1000.23 134.808C1012.36 153.005 1031.73 162.545 1051.47 163.376V163.43C1051.72 163.443 1051.98 163.43 1052.23 163.43C1052.48 163.43 1052.74 163.483 1052.99 163.483V163.43C1072.72 164.354 1092.87 156.582 1106.56 139.525C1106.56 139.525 1169.34 65.117 1182.34 49.8415C1195.33 34.5525 1209.71 22.8413 1225.71 20.2284C1218.49 13.6358 1169.08 -10.5102 1132.29 38.2642V38.291Z" stroke="white" stroke-width="2" stroke-miterlimit="10"/>
<path d="M1225.7 20.2551C1209.69 22.868 1195.23 34.5927 1182.23 49.8682C1169.23 65.1437 1173.23 61.0032 1173.23 61.0032C1186.43 49.962 1201.03 58.8191 1204.76 63.9109L1259.72 140.851C1291.07 183.221 1339.84 169.205 1351.24 166.337C1335.53 162.304 1322.19 150.151 1310.59 133.776C1299 117.402 1232.53 24.9718 1225.7 20.2417V20.2551Z" stroke="white" stroke-width="2" stroke-miterlimit="10"/>
<path d="M1547.32 70.1553C1527 95.0249 1491.98 138.131 1489.16 141.548C1476.37 157.065 1462.2 168.2 1446.33 170.974C1457.37 174.793 1504.45 192.815 1538.89 152.777C1538.89 152.777 1554.74 132.705 1574.87 108.451" stroke="white" stroke-width="2" stroke-miterlimit="10"/>
<path d="M1474.93 45.2456L1412.7 118.488C1408.54 123.231 1402.59 125.094 1396.91 124.491C1391.18 124.585 1385.43 122.213 1381.7 117.108L1326.21 38.6262C1294.86 -3.74325 1246.09 10.2727 1234.68 13.1402C1250.4 17.1735 1263.74 29.3269 1275.33 45.7012C1286.93 62.0755 1342.87 141.763 1342.87 141.763C1355 159.959 1374.38 169.5 1394.11 170.331V170.384C1394.37 170.398 1394.62 170.384 1394.87 170.384C1395.13 170.384 1395.38 170.438 1395.64 170.438V170.384C1415.36 171.309 1435.51 163.537 1449.2 146.479C1449.2 146.479 1511.98 72.0716 1524.98 56.796C1537.98 41.5071 1552.35 29.7959 1568.36 27.183C1561.14 20.5904 1511.73 -3.55565 1474.93 45.2188V45.2456Z" stroke="white" stroke-width="2" stroke-miterlimit="10"/>
<path d="M1568.36 27.1965C1552.35 29.8094 1537.88 41.5341 1524.88 56.8096C1511.89 72.0851 1515.89 67.9446 1515.89 67.9446C1529.08 56.9034 1543.68 65.7605 1547.42 70.8523L1602.37 147.793C1633.73 190.162 1682.49 176.146 1693.9 173.279C1678.19 169.245 1664.84 157.092 1653.25 140.718C1641.66 124.343 1578.56 34.3653 1568.36 27.1831V27.1965Z" stroke="white" stroke-width="2" stroke-miterlimit="10"/>
<path d="M1097.16 79.6286C1080.71 56.4473 1065.71 36.3613 1065.71 36.3613C1034.98 -3.5158 1003 2.03162 978.795 13.0729C976.923 13.9304 973.554 15.7394 970.251 17.6019" stroke="white" stroke-width="2" stroke-miterlimit="10"/>
<path d="M977.418 24.2883C981.978 23.4173 987.193 22.8277 991.057 23.4575C1001.01 24.7036 1007.7 29.4069 1010.81 32.0868C1016.14 37.0447 1021.1 43.0745 1025.76 49.868C1027.94 53.0437 1051.91 87.9362 1068.83 112.806" stroke="white" stroke-width="2" stroke-miterlimit="10"/>
</svg>
